<svg width="800" height="600" xmlns="http://www.w3.org/2000/svg">

 <g>
  <title>Layer 1</title>
  <ellipse ry="32.5" rx="32.5" id="svg_1" cy="88.6321" cx="96.20992" fill="#3088ff"/>
  <ellipse ry="32.5" rx="32.5" id="svg_5" cy="293.75528" cx="96.20992" fill="#3088ff"/>
  <ellipse ry="32.5" rx="32.5" id="svg_7" cy="511.25204" cx="96.20992" fill="#3088ff"/>
  <ellipse ry="32.5" rx="32.5" id="svg_9" cy="88.6321" cx="96.20992" fill="#3088ff"/>
  <ellipse ry="32.5" rx="32.5" id="svg_16" cy="88.6321" cx="283.30758" fill="#3088ff"/>
  <ellipse ry="32.5" rx="32.5" id="svg_18" cy="293.75528" cx="283.30758" fill="#3088ff"/>
  <ellipse ry="32.5" rx="32.5" id="svg_20" cy="511.25204" cx="283.30758" fill="#3088ff"/>
  <ellipse ry="32.5" rx="32.5" id="svg_21" cy="88.6321" cx="283.30758" fill="#3088ff"/>
  <ellipse ry="32.5" rx="32.5" id="svg_28" cy="88.6321" cx="495.74669" fill="#3088ff"/>
  <ellipse ry="32.5" rx="32.5" id="svg_30" cy="293.75528" cx="495.74669" fill="#3088ff"/>
  <ellipse ry="32.5" rx="32.5" id="svg_32" cy="511.25204" cx="495.74669" fill="#3088ff"/>
  <ellipse ry="32.5" rx="32.5" id="svg_33" cy="88.6321" cx="495.74669" fill="#3088ff"/>
  <ellipse ry="32.5" rx="32.5" id="svg_34" cy="88.6321" cx="707.68502" fill="#3088ff"/>
  <ellipse ry="32.5" rx="32.5" id="svg_36" cy="293.75528" cx="707.68502" fill="#3088ff"/>
  <ellipse ry="32.5" rx="32.5" id="svg_38" cy="511.25204" cx="707.68502" fill="#3088ff"/>
  <ellipse ry="32.5" rx="32.5" id="svg_39" cy="88.6321" cx="707.68502" fill="#3088ff"/>
 </g>
</svg>